<svg xmlns="http://www.w3.org/2000/svg" width="18" height="20" fill="none"><path fill="#161616" d="M4.75 3A1.75 1.75 0 0 0 3 4.75v1c0 .966.784 1.75 1.75 1.75h5.5A1.75 1.75 0 0 0 12 5.75v-1A1.75 1.75 0 0 0 10.25 3zM4.5 4.75a.25.25 0 0 1 .25-.25h5.5a.25.25 0 0 1 .25.25v1a.25.25 0 0 1-.25.25h-5.5a.25.25 0 0 1-.25-.25zm3 4a1.25 1.25 0 1 0 0 2.5 1.25 1.25 0 0 0 0-2.5M6.25 13.5a1.25 1.25 0 1 1 2.5 0 1.25 1.25 0 0 1-2.5 0M4 8.75a1.25 1.25 0 1 0 0 2.5 1.25 1.25 0 0 0 0-2.5M2.75 13.5a1.25 1.25 0 1 1 2.5 0 1.25 1.25 0 0 1-2.5 0M11 8.75a1.25 1.25 0 1 0 0 2.5 1.25 1.25 0 0 0 0-2.5M9.75 13.5a1.25 1.25 0 1 1 2.5 0 1.25 1.25 0 0 1-2.5 0M3.137 0A3.137 3.137 0 0 0 0 3.137v11.226A3.137 3.137 0 0 0 3.137 17.5h8.726A3.137 3.137 0 0 0 15 14.363V3.137A3.137 3.137 0 0 0 11.863 0zM1.5 3.137c0-.904.733-1.637 1.637-1.637h8.726c.904 0 1.637.733 1.637 1.637v11.226c0 .904-.733 1.637-1.637 1.637H3.137A1.637 1.637 0 0 1 1.5 14.363zm1.3 15.35A2.75 2.75 0 0 0 5.259 20h6.992c2.9 0 5.25-2.35 5.25-5.25v-9.5a2.75 2.75 0 0 0-1.514-2.457q.015.17.014.344V14.75a3.75 3.75 0 0 1-3.75 3.75H3.137q-.17 0-.337-.013"/></svg>