<svg xmlns="http://www.w3.org/2000/svg" width="32" height="32" fill="none"><path fill="#161616" fill-opacity=".8" d="M8.24 30.333c-.133 0-.28-.013-.4-.027l-2.893-.4c-1.387-.186-2.64-1.426-2.853-2.84l-.4-2.92c-.134-.933.266-2.146.933-2.826l5.853-5.854A11.04 11.04 0 0 1 11.414 4.92c4.32-4.307 11.346-4.32 15.68 0a11.01 11.01 0 0 1 3.24 7.84c0 2.96-1.147 5.746-3.24 7.84-2.8 2.773-6.787 3.866-10.547 2.906L10.68 29.36c-.56.586-1.56.973-2.44.973m11-26.653c-2.333 0-4.653.88-6.426 2.653a9.07 9.07 0 0 0-2.267 9.133.99.99 0 0 1-.254 1l-6.266 6.267c-.227.227-.413.813-.373 1.12l.4 2.92c.08.507.626 1.08 1.133 1.147l2.907.4c.32.053.906-.134 1.133-.36l6.293-6.28a1 1 0 0 1 1-.24 9.04 9.04 0 0 0 9.12-2.254 9.05 9.05 0 0 0 2.654-6.426c0-2.44-.947-4.72-2.654-6.427-1.733-1.76-4.067-2.653-6.4-2.653"/><path fill="#161616" fill-opacity=".8" d="M12.255 27.387a1 1 0 0 1-.707-.294l-3.067-3.066a1.006 1.006 0 0 1 0-1.414 1.006 1.006 0 0 1 1.414 0l3.066 3.067a1.006 1.006 0 0 1 0 1.413c-.2.2-.453.294-.706.294M19.332 15.667c-1.653 0-3-1.347-3-3s1.347-3 3-3 3 1.347 3 3-1.347 3-3 3m0-4c-.547 0-1 .453-1 1s.453 1 1 1 1-.453 1-1-.453-1-1-1"/></svg>