<svg xmlns="http://www.w3.org/2000/svg" width="32" height="32" fill="none"><path fill="#161616" fill-opacity=".8" d="M16 30.333c-.933 0-1.88-.36-2.587-1.067l-2.28-2.253a3 3 0 0 0-2.12-.867H8c-2.76 0-5-2.226-5-4.96V6.64c0-2.734 2.24-4.96 5-4.96h16c2.76 0 5 2.226 5 4.96v14.546c0 2.734-2.24 4.96-5 4.96h-1.013c-.787 0-1.56.32-2.12.867l-2.28 2.253A3.67 3.67 0 0 1 16 30.333M8 3.666c-1.653 0-3 1.334-3 2.96v14.547c0 1.64 1.347 2.96 3 2.96h1.013c1.32 0 2.6.533 3.534 1.453l2.28 2.254a1.69 1.69 0 0 0 2.36 0l2.28-2.254A5.06 5.06 0 0 1 23 24.133h1c1.653 0 3-1.333 3-2.96V6.626c0-1.64-1.347-2.96-3-2.96z"/><path fill="#161616" fill-opacity=".8" d="M15.998 21c-.24 0-.48-.04-.693-.107-1.76-.6-6.293-3.253-6.293-8.213 0-2.4 1.946-4.347 4.333-4.347.973 0 1.907.333 2.667.92a4.37 4.37 0 0 1 2.666-.92 4.345 4.345 0 0 1 4.334 4.347c0 4.96-4.547 7.613-6.294 8.213-.24.067-.48.107-.72.107m-2.666-10.667a2.347 2.347 0 0 0-2.334 2.347c0 3.773 3.667 5.88 4.947 6.32h.107c1.293-.454 4.933-2.56 4.933-6.307a2.34 2.34 0 0 0-2.333-2.347c-.734 0-1.414.347-1.867.934-.373.506-1.227.506-1.6 0a2.25 2.25 0 0 0-1.853-.947"/></svg>