<svg width="164" height="52" viewBox="0 0 164 52" fill="none" xmlns="http://www.w3.org/2000/svg">
<path d="M14.9062 40.9498C14.0179 40.9498 13.2812 40.2132 13.2812 39.3248V34.8398C13.2812 33.9515 14.0179 33.2148 14.9062 33.2148C15.7946 33.2148 16.5312 33.9515 16.5312 34.8398V39.3248C16.5312 40.2348 15.7946 40.9498 14.9062 40.9498Z" fill="#161616"/>
<path d="M26 40.9502C25.1117 40.9502 24.375 40.2135 24.375 39.3252V30.3335C24.375 29.4452 25.1117 28.7085 26 28.7085C26.8883 28.7085 27.625 29.4452 27.625 30.3335V39.3252C27.625 40.2352 26.8883 40.9502 26 40.9502Z" fill="#161616"/>
<path d="M37.0938 40.9498C36.2054 40.9498 35.4688 40.2131 35.4688 39.3248V25.8481C35.4688 24.9598 36.2054 24.2231 37.0938 24.2231C37.9821 24.2231 38.7188 24.9598 38.7188 25.8481V39.3248C38.7188 40.2348 38.0038 40.9498 37.0938 40.9498Z" fill="#161616"/>
<path d="M14.908 28.5566C14.1714 28.5566 13.5214 28.0582 13.3264 27.3216C13.1097 26.4549 13.6297 25.5666 14.518 25.3499C22.4914 23.3566 29.5114 19.0016 34.863 12.7832L35.8597 11.6132C36.4447 10.9416 37.463 10.8549 38.1564 11.4399C38.828 12.0249 38.9147 13.0432 38.3297 13.7366L37.333 14.9066C31.548 21.6666 23.9214 26.3682 15.298 28.5132C15.168 28.5566 15.038 28.5566 14.908 28.5566Z" fill="#161616"/>
<path d="M37.0944 20.6265C36.2061 20.6265 35.4694 19.8898 35.4694 19.0015V14.2998H30.7461C29.8578 14.2998 29.1211 13.5631 29.1211 12.6748C29.1211 11.7865 29.8578 11.0498 30.7461 11.0498H37.0944C37.9828 11.0498 38.7194 11.7865 38.7194 12.6748V19.0231C38.7194 19.9115 38.0044 20.6265 37.0944 20.6265Z" fill="#161616"/>
<path d="M82.918 32.1172C82.918 31.5703 82.8333 31.082 82.6641 30.6523C82.5078 30.2096 82.2148 29.8125 81.7852 29.4609C81.3685 29.0964 80.776 28.7448 80.0078 28.4062C79.2526 28.0547 78.276 27.6901 77.0781 27.3125C75.75 26.8958 74.513 26.4271 73.3672 25.9062C72.2214 25.3854 71.2122 24.7799 70.3398 24.0898C69.4805 23.3997 68.8099 22.6055 68.3281 21.707C67.8464 20.7956 67.6055 19.7409 67.6055 18.543C67.6055 17.3711 67.8529 16.3034 68.3477 15.3398C68.8555 14.3763 69.5716 13.5495 70.4961 12.8594C71.4206 12.1562 72.5078 11.6159 73.7578 11.2383C75.0208 10.8607 76.4141 10.6719 77.9375 10.6719C80.0469 10.6719 81.8698 11.056 83.4062 11.8242C84.9557 12.5924 86.1536 13.6341 87 14.9492C87.8464 16.2643 88.2695 17.7422 88.2695 19.3828H82.918C82.918 18.4974 82.7292 17.7161 82.3516 17.0391C81.987 16.362 81.4271 15.8281 80.6719 15.4375C79.9297 15.0469 78.9922 14.8516 77.8594 14.8516C76.7656 14.8516 75.8542 15.0143 75.125 15.3398C74.4089 15.6654 73.8685 16.1081 73.5039 16.668C73.1523 17.2279 72.9766 17.8529 72.9766 18.543C72.9766 19.0638 73.1003 19.5326 73.3477 19.9492C73.5951 20.3529 73.9661 20.737 74.4609 21.1016C74.9557 21.4531 75.5677 21.7852 76.2969 22.0977C77.0391 22.3971 77.8984 22.6966 78.875 22.9961C80.4375 23.4648 81.8047 23.9857 82.9766 24.5586C84.1615 25.1315 85.1445 25.7826 85.9258 26.5117C86.7201 27.2409 87.3125 28.0612 87.7031 28.9727C88.1068 29.8841 88.3086 30.9193 88.3086 32.0781C88.3086 33.3021 88.0677 34.3958 87.5859 35.3594C87.1042 36.3229 86.4141 37.1432 85.5156 37.8203C84.6172 38.4974 83.5365 39.0117 82.2734 39.3633C81.0234 39.7148 79.6237 39.8906 78.0742 39.8906C76.694 39.8906 75.3268 39.7083 73.9727 39.3438C72.6315 38.9661 71.4141 38.4062 70.3203 37.6641C69.2266 36.9089 68.3542 35.9583 67.7031 34.8125C67.0521 33.6536 66.7266 32.2995 66.7266 30.75H72.1172C72.1172 31.6484 72.2604 32.4167 72.5469 33.0547C72.8464 33.6797 73.263 34.194 73.7969 34.5977C74.3438 34.9883 74.9818 35.2747 75.7109 35.457C76.4401 35.6393 77.2279 35.7305 78.0742 35.7305C79.168 35.7305 80.0664 35.5807 80.7695 35.2812C81.4857 34.9688 82.0195 34.5391 82.3711 33.9922C82.7357 33.4453 82.918 32.8203 82.918 32.1172ZM91.1406 29.1484V28.7383C91.1406 27.1888 91.362 25.763 91.8047 24.4609C92.2474 23.1458 92.8919 22.0065 93.7383 21.043C94.5846 20.0794 95.6198 19.3307 96.8438 18.7969C98.0677 18.25 99.4609 17.9766 101.023 17.9766C102.612 17.9766 104.018 18.25 105.242 18.7969C106.479 19.3307 107.521 20.0794 108.367 21.043C109.214 22.0065 109.858 23.1458 110.301 24.4609C110.743 25.763 110.965 27.1888 110.965 28.7383V29.1484C110.965 30.6849 110.743 32.1107 110.301 33.4258C109.858 34.7279 109.214 35.8672 108.367 36.8438C107.521 37.8073 106.486 38.556 105.262 39.0898C104.038 39.6237 102.638 39.8906 101.062 39.8906C99.5 39.8906 98.1003 39.6237 96.8633 39.0898C95.6263 38.556 94.5846 37.8073 93.7383 36.8438C92.8919 35.8672 92.2474 34.7279 91.8047 33.4258C91.362 32.1107 91.1406 30.6849 91.1406 29.1484ZM96.2969 28.7383V29.1484C96.2969 30.0729 96.388 30.9388 96.5703 31.7461C96.7526 32.5534 97.0326 33.263 97.4102 33.875C97.7878 34.487 98.276 34.9688 98.875 35.3203C99.487 35.6589 100.216 35.8281 101.062 35.8281C101.896 35.8281 102.612 35.6589 103.211 35.3203C103.81 34.9688 104.298 34.487 104.676 33.875C105.066 33.263 105.353 32.5534 105.535 31.7461C105.717 30.9388 105.809 30.0729 105.809 29.1484V28.7383C105.809 27.8268 105.717 26.974 105.535 26.1797C105.353 25.3724 105.066 24.6628 104.676 24.0508C104.298 23.4258 103.803 22.9375 103.191 22.5859C102.592 22.2214 101.87 22.0391 101.023 22.0391C100.19 22.0391 99.474 22.2214 98.875 22.5859C98.276 22.9375 97.7878 23.4258 97.4102 24.0508C97.0326 24.6628 96.7526 25.3724 96.5703 26.1797C96.388 26.974 96.2969 27.8268 96.2969 28.7383ZM120.184 9.5V39.5H115.008V9.5H120.184ZM136.746 35.0078V25.2617C136.746 24.5456 136.622 23.9271 136.375 23.4062C136.128 22.8854 135.75 22.4818 135.242 22.1953C134.734 21.9089 134.09 21.7656 133.309 21.7656C132.618 21.7656 132.013 21.8828 131.492 22.1172C130.984 22.3516 130.594 22.6836 130.32 23.1133C130.047 23.5299 129.91 24.0117 129.91 24.5586H124.734C124.734 23.6862 124.943 22.8594 125.359 22.0781C125.776 21.2839 126.368 20.5807 127.137 19.9688C127.918 19.3438 128.849 18.8555 129.93 18.5039C131.023 18.1523 132.247 17.9766 133.602 17.9766C135.203 17.9766 136.629 18.25 137.879 18.7969C139.142 19.3307 140.132 20.138 140.848 21.2188C141.577 22.2995 141.941 23.6602 141.941 25.3008V34.5195C141.941 35.5742 142.007 36.4792 142.137 37.2344C142.28 37.9766 142.488 38.6211 142.762 39.168V39.5H137.508C137.26 38.9661 137.072 38.2891 136.941 37.4688C136.811 36.6354 136.746 35.8151 136.746 35.0078ZM137.469 26.6289L137.508 29.6953H134.246C133.439 29.6953 132.729 29.7799 132.117 29.9492C131.505 30.1055 131.004 30.3398 130.613 30.6523C130.223 30.9518 129.93 31.3164 129.734 31.7461C129.539 32.1628 129.441 32.638 129.441 33.1719C129.441 33.6927 129.559 34.1615 129.793 34.5781C130.04 34.9948 130.392 35.3268 130.848 35.5742C131.316 35.8086 131.863 35.9258 132.488 35.9258C133.4 35.9258 134.194 35.7435 134.871 35.3789C135.548 35.0013 136.076 34.5456 136.453 34.0117C136.831 33.4779 137.033 32.9701 137.059 32.4883L138.543 34.7148C138.361 35.2487 138.087 35.8151 137.723 36.4141C137.358 37.013 136.889 37.5729 136.316 38.0938C135.743 38.6146 135.053 39.0443 134.246 39.3828C133.439 39.7214 132.501 39.8906 131.434 39.8906C130.066 39.8906 128.842 39.6172 127.762 39.0703C126.681 38.5234 125.828 37.7747 125.203 36.8242C124.578 35.8737 124.266 34.793 124.266 33.582C124.266 32.4622 124.474 31.4727 124.891 30.6133C125.307 29.7539 125.926 29.0312 126.746 28.4453C127.566 27.8464 128.582 27.3971 129.793 27.0977C131.017 26.7852 132.417 26.6289 133.992 26.6289H137.469ZM151.746 22.6836V39.5H146.59V18.3672H151.473L151.746 22.6836ZM158.172 18.2305L158.094 23.0352C157.807 22.9831 157.482 22.944 157.117 22.918C156.766 22.8919 156.434 22.8789 156.121 22.8789C155.327 22.8789 154.63 22.9896 154.031 23.2109C153.432 23.4193 152.931 23.7253 152.527 24.1289C152.137 24.5326 151.837 25.0273 151.629 25.6133C151.421 26.1862 151.303 26.8372 151.277 27.5664L150.164 27.4297C150.164 26.0885 150.301 24.8451 150.574 23.6992C150.848 22.5534 151.245 21.5508 151.766 20.6914C152.286 19.832 152.938 19.168 153.719 18.6992C154.513 18.2174 155.424 17.9766 156.453 17.9766C156.74 17.9766 157.046 18.0026 157.371 18.0547C157.71 18.0938 157.977 18.1523 158.172 18.2305Z" fill="#161616"/>
</svg>
