<svg xmlns="http://www.w3.org/2000/svg" width="32" height="32" fill="none"><path fill="#161616" fill-opacity=".8" d="M16 21c-5.52 0-10-4.333-10-9.666s4.48-9.667 10-9.667S26 6 26 11.334 21.52 21 16 21m0-17.333c-4.413 0-8 3.44-8 7.667C8 15.56 11.587 19 16 19s8-3.44 8-7.666-3.587-7.667-8-7.667"/><path fill="#161616" fill-opacity=".8" d="M20.825 30.334c-.373 0-.746-.094-1.133-.267l-3.587-1.694a.7.7 0 0 0-.24 0l-3.56 1.68c-.786.374-1.613.36-2.253-.053-.667-.427-1.053-1.213-1.04-2.146l.013-9.84c0-.547.427-1.027 1-1 .547 0 1 .453 1 1l-.013 9.84c0 .293.08.44.12.453.027.013.147.026.333-.067l3.574-1.693c.573-.267 1.36-.267 1.933 0l3.587 1.693c.186.093.306.08.333.067.04-.027.12-.173.12-.453v-10.08c0-.547.453-1 1-1s1 .453 1 1v10.08c0 .946-.387 1.72-1.053 2.146a2.04 2.04 0 0 1-1.134.334"/></svg>