<svg xmlns="http://www.w3.org/2000/svg" width="32" height="32" fill="none"><path fill="#161616" fill-opacity=".8" d="M16.002 30.347c-1.453 0-2.893-.427-4.027-1.267L6.242 24.8c-1.52-1.133-2.707-3.507-2.707-5.387v-9.92c0-2.053 1.507-4.24 3.44-4.96L13.63 2.04c1.32-.493 3.4-.493 4.72 0l6.653 2.493c1.933.72 3.44 2.907 3.44 4.96V19.4c0 1.893-1.187 4.253-2.707 5.387l-5.733 4.28c-1.107.853-2.547 1.28-4 1.28M14.335 3.92 7.682 6.413C6.548 6.84 5.548 8.28 5.548 9.507v9.906c0 1.267.894 3.04 1.894 3.787l5.733 4.28c1.534 1.147 4.12 1.147 5.667 0l5.733-4.28c1.014-.76 1.893-2.52 1.893-3.787v-9.92c0-1.213-1-2.653-2.133-3.093l-6.653-2.493c-.907-.32-2.453-.32-3.347.013"/><path fill="#161616" fill-opacity=".8" d="M14.214 18.973a1 1 0 0 1-.707-.293l-2.147-2.147a1.006 1.006 0 0 1 0-1.413 1.006 1.006 0 0 1 1.414 0l1.44 1.44 5.026-5.027a1.006 1.006 0 0 1 1.414 0 1.006 1.006 0 0 1 0 1.414L14.92 18.68c-.2.2-.453.293-.706.293"/></svg>