<svg aria-hidden="true" style="position: absolute; width: 0; height: 0; overflow: hidden;" version="1.1" xmlns="http://www.w3.org/2000/svg" xmlns:xlink="http://www.w3.org/1999/xlink">
    <defs>
        <symbol id="icon-medal" viewBox="0 0 32 32">
            <path d="M16 21c-5.52 0-10-4.333-10-9.666s4.48-9.667 10-9.667 10 4.333 10 9.667-4.48 9.666-10 9.666zM16 3.667c-4.413 0-8 3.44-8 7.667 0 4.226 3.587 7.666 8 7.666s8-3.44 8-7.666-3.587-7.667-8-7.667z"></path>
            <path d="M20.825 30.334c-0.373 0-0.746-0.094-1.133-0.267l-3.587-1.694c-0.036-0.007-0.078-0.010-0.12-0.010s-0.084 0.004-0.124 0.011l0.004-0.001-3.56 1.68c-0.786 0.374-1.613 0.36-2.253-0.053-0.667-0.427-1.053-1.213-1.040-2.146l0.013-9.84c0-0.547 0.427-1.027 1-1 0.547 0 1 0.453 1 1l-0.013 9.84c0 0.293 0.080 0.44 0.12 0.453 0.027 0.013 0.147 0.026 0.333-0.067l3.574-1.693c0.573-0.267 1.36-0.267 1.933 0l3.587 1.693c0.186 0.093 0.306 0.080 0.333 0.067 0.040-0.027 0.12-0.173 0.12-0.453v-10.080c0-0.547 0.453-1 1-1s1 0.453 1 1v10.080c0 0.946-0.387 1.72-1.053 2.146-0.315 0.209-0.702 0.334-1.119 0.334-0.005 0-0.011-0-0.016-0h0.001z"></path>
        </symbol>
        <symbol id="icon-shield-tick" viewBox="0 0 32 32">
            <path d="M16.002 30.347c-1.453 0-2.893-0.427-4.027-1.267l-5.733-4.28c-1.52-1.133-2.707-3.507-2.707-5.387v-9.92c0-2.053 1.507-4.24 3.44-4.96l6.655-2.493c1.32-0.493 3.4-0.493 4.72 0l6.653 2.493c1.933 0.72 3.44 2.907 3.44 4.96v9.907c0 1.893-1.187 4.253-2.707 5.387l-5.733 4.28c-1.107 0.853-2.547 1.28-4 1.28zM14.335 3.92l-6.653 2.493c-1.134 0.427-2.134 1.867-2.134 3.094v9.906c0 1.267 0.894 3.040 1.894 3.787l5.733 4.28c1.534 1.147 4.12 1.147 5.667 0l5.733-4.28c1.014-0.76 1.893-2.52 1.893-3.787v-9.92c0-1.213-1-2.653-2.133-3.093l-6.653-2.493c-0.907-0.32-2.453-0.32-3.347 0.013z"></path>
            <path d="M14.214 18.973c-0.276-0-0.526-0.112-0.707-0.293l-2.147-2.147c-0.179-0.182-0.29-0.431-0.29-0.707s0.111-0.525 0.29-0.707l-0 0c0.182-0.179 0.431-0.29 0.707-0.29s0.525 0.111 0.707 0.29l1.44 1.44 5.026-5.027c0.182-0.179 0.431-0.29 0.707-0.29s0.525 0.111 0.707 0.29l-0-0c0.179 0.182 0.29 0.431 0.29 0.707s-0.111 0.525-0.29 0.707l-5.734 5.733c-0.2 0.2-0.453 0.293-0.706 0.293z"></path>
        </symbol>
        <symbol id="icon-like" viewBox="0 0 32 32">
            <path d="M16 30.333c-0.933 0-1.88-0.36-2.587-1.067l-2.28-2.253c-0.542-0.536-1.287-0.867-2.11-0.867-0.004 0-0.007 0-0.011 0h-1.012c-2.76 0-5-2.226-5-4.96v-14.546c0-2.734 2.24-4.96 5-4.96h16c2.76 0 5 2.226 5 4.96v14.546c0 2.734-2.24 4.96-5 4.96h-1.013c-0.787 0-1.56 0.32-2.12 0.867l-2.28 2.253c-0.663 0.659-1.578 1.067-2.587 1.067v0zM8 3.666c-1.653 0-3 1.334-3 2.96v14.547c0 1.64 1.347 2.96 3 2.96h1.013c1.32 0 2.6 0.533 3.534 1.453l2.28 2.254c0.304 0.297 0.721 0.48 1.18 0.48s0.876-0.183 1.18-0.48l-0 0 2.28-2.254c0.909-0.895 2.156-1.449 3.532-1.453h1.001c1.653 0 3-1.333 3-2.96v-14.547c0-1.64-1.347-2.96-3-2.96z"></path>
            <path d="M15.998 21c-0.24 0-0.48-0.040-0.693-0.107-1.76-0.6-6.293-3.253-6.293-8.213 0-2.4 1.946-4.347 4.333-4.347 0.973 0 1.907 0.333 2.667 0.92 0.728-0.57 1.656-0.916 2.665-0.92h0.001c2.395 0.006 4.334 1.949 4.334 4.345 0 0.001 0 0.001 0 0.002v-0c0 4.96-4.547 7.613-6.294 8.213-0.24 0.067-0.48 0.107-0.72 0.107zM13.332 10.333c-1.291 0.007-2.334 1.055-2.334 2.347 0 0 0 0 0 0v0c0 3.773 3.667 5.88 4.947 6.32h0.107c1.293-0.454 4.933-2.56 4.933-6.307 0-0.002 0-0.005 0-0.007 0-1.29-1.044-2.336-2.333-2.34h-0c-0.734 0-1.414 0.347-1.867 0.934-0.373 0.506-1.227 0.506-1.6 0-0.413-0.576-1.080-0.947-1.834-0.947-0.007 0-0.013 0-0.020 0h0.001z"></path>
        </symbol>
        <symbol id="icon-key" viewBox="0 0 32 32">
            <path d="M8.24 30.333c-0.133 0-0.28-0.013-0.4-0.027l-2.893-0.4c-1.387-0.186-2.64-1.426-2.853-2.84l-0.4-2.92c-0.134-0.933 0.266-2.146 0.933-2.826l5.853-5.854c-0.213-0.811-0.336-1.743-0.336-2.703 0-3.067 1.25-5.841 3.269-7.842l0.001-0.001c4.32-4.307 11.346-4.32 15.68 0 2.002 1.994 3.24 4.753 3.24 7.801 0 0.014-0 0.028-0 0.042v-0.002c0 2.96-1.147 5.746-3.24 7.84-2.8 2.773-6.787 3.866-10.547 2.906l-5.867 5.854c-0.56 0.586-1.56 0.973-2.44 0.973zM19.24 3.68c-2.333 0-4.653 0.88-6.426 2.653-1.654 1.643-2.678 3.919-2.678 6.435 0 0.963 0.15 1.892 0.428 2.763l-0.018-0.064c0.028 0.087 0.044 0.188 0.044 0.292 0 0.277-0.114 0.528-0.298 0.708l-6.266 6.267c-0.227 0.227-0.413 0.813-0.373 1.12l0.4 2.92c0.080 0.507 0.626 1.080 1.133 1.147l2.907 0.4c0.32 0.053 0.906-0.134 1.133-0.36l6.293-6.28c0.18-0.177 0.427-0.286 0.7-0.286 0.107 0 0.21 0.017 0.307 0.048l-0.007-0.002c0.809 0.263 1.74 0.415 2.707 0.415 2.507 0 4.775-1.020 6.413-2.668l0-0c1.64-1.638 2.654-3.902 2.654-6.403 0-0.008 0-0.016-0-0.025v0.001c0-2.44-0.947-4.72-2.654-6.427-1.733-1.76-4.067-2.653-6.4-2.653z"></path>
            <path d="M12.255 27.387c-0.276-0-0.526-0.113-0.707-0.294l-3.067-3.066c-0.179-0.182-0.29-0.431-0.29-0.707s0.111-0.525 0.29-0.707l-0 0c0.182-0.179 0.431-0.29 0.707-0.29s0.525 0.111 0.707 0.29l3.066 3.067c0.179 0.182 0.29 0.431 0.29 0.706s-0.111 0.525-0.29 0.707l0-0c-0.2 0.2-0.453 0.294-0.706 0.294zM19.332 15.667c-1.653 0-3-1.347-3-3s1.347-3 3-3 3 1.347 3 3-1.347 3-3 3zM19.332 11.667c-0.547 0-1 0.453-1 1s0.453 1 1 1 1-0.453 1-1-0.453-1-1-1z"></path>
        </symbol>
        <symbol id="icon-arrow" viewBox="0 0 32 32">
            <path d="M19.241 25.093c-0.253 0-0.507-0.093-0.707-0.293-0.179-0.181-0.29-0.431-0.29-0.707s0.111-0.525 0.29-0.707l7.387-7.387-7.387-7.387c-0.179-0.181-0.29-0.431-0.29-0.707s0.111-0.525 0.29-0.707l-0 0c0.387-0.387 1.027-0.387 1.413 0l8.093 8.093c0.387 0.387 0.387 1.027 0 1.413l-8.093 8.093c-0.2 0.2-0.453 0.293-0.707 0.293z"></path>
            <path d="M27.107 17h-22.44c-0.547 0-1-0.453-1-1s0.453-1 1-1h22.44c0.547 0 1 0.453 1 1s-0.453 1-1 1z"></path>
        </symbol>
        <symbol id="icon-sun" viewBox="0 0 32 32">
            <path d="M16 25.667c-5.333 0-9.667-4.333-9.667-9.667s4.333-9.667 9.667-9.667 9.667 4.333 9.667 9.667-4.333 9.667-9.667 9.667zM16 8.333c-4.227 0-7.667 3.44-7.667 7.667s3.44 7.667 7.667 7.667 7.667-3.44 7.667-7.667-3.44-7.667-7.667-7.667zM16 30.613c-0.733 0-1.333-0.547-1.333-1.28v-0.107c0-0.733 0.6-1.333 1.333-1.333s1.333 0.6 1.333 1.333-0.6 1.387-1.333 1.387zM25.52 26.853c-0.347 0-0.68-0.133-0.947-0.387l-0.173-0.173c-0.241-0.241-0.389-0.573-0.389-0.94 0-0.734 0.595-1.329 1.329-1.329 0.367 0 0.699 0.149 0.94 0.389l0.173 0.173c0.24 0.24 0.389 0.572 0.389 0.939 0 0.731-0.591 1.325-1.322 1.328h-0zM6.48 26.853c-0.347 0-0.68-0.133-0.947-0.387-0.241-0.24-0.39-0.573-0.39-0.94s0.149-0.7 0.39-0.94l0.173-0.173c0.241-0.241 0.573-0.389 0.94-0.389 0.734 0 1.329 0.595 1.329 1.329 0 0.367-0.149 0.699-0.389 0.94l-0.173 0.173c-0.253 0.253-0.6 0.387-0.933 0.387zM29.333 17.333h-0.107c-0.733 0-1.333-0.6-1.333-1.333s0.6-1.333 1.333-1.333 1.387 0.6 1.387 1.333-0.547 1.333-1.28 1.333zM2.773 17.333h-0.107c-0.733 0-1.333-0.6-1.333-1.333s0.6-1.333 1.333-1.333 1.387 0.6 1.387 1.333-0.547 1.333-1.28 1.333zM25.347 7.987c-0.347 0-0.68-0.133-0.947-0.387-0.241-0.24-0.39-0.573-0.39-0.94s0.149-0.7 0.39-0.94l0.173-0.173c0.241-0.241 0.573-0.389 0.94-0.389 0.734 0 1.329 0.595 1.329 1.329 0 0.367-0.149 0.699-0.389 0.94l-0.173 0.173c-0.253 0.253-0.587 0.387-0.933 0.387zM6.653 7.987c-0.347 0-0.68-0.133-0.947-0.387l-0.173-0.187c-0.241-0.241-0.389-0.573-0.389-0.94 0-0.734 0.595-1.329 1.329-1.329 0.367 0 0.699 0.149 0.94 0.389l0.173 0.173c0.52 0.52 0.52 1.36 0 1.88-0.253 0.267-0.6 0.4-0.933 0.4zM16 4.053c-0.733 0-1.333-0.547-1.333-1.28v-0.107c0-0.733 0.6-1.333 1.333-1.333s1.333 0.6 1.333 1.333-0.6 1.387-1.333 1.387z"></path>
        </symbol>
        <symbol id="icon-calculator" viewBox="0 0 29 32">
            <path d="M7.6 4.8c-1.546 0-2.8 1.254-2.8 2.8v0 1.6c0 1.546 1.254 2.8 2.8 2.8h8.8c1.546 0 2.8-1.254 2.8-2.8v0-1.6c0-1.546-1.254-2.8-2.8-2.8v0zM7.2 7.6c0-0.221 0.179-0.4 0.4-0.4v0h8.8c0.221 0 0.4 0.179 0.4 0.4v0 1.6c0 0.221-0.179 0.4-0.4 0.4v0h-8.8c-0.221 0-0.4-0.179-0.4-0.4v0zM12 14c-1.105 0-2 0.895-2 2s0.895 2 2 2v0c1.105 0 2-0.895 2-2s-0.895-2-2-2v0zM10 21.6c0-1.105 0.895-2 2-2s2 0.895 2 2v0c0 1.105-0.895 2-2 2s-2-0.895-2-2v0zM6.4 14c-1.105 0-2 0.895-2 2s0.895 2 2 2v0c1.105 0 2-0.895 2-2s-0.895-2-2-2v0zM4.4 21.6c0-1.105 0.895-2 2-2s2 0.895 2 2v0c0 1.105-0.895 2-2 2s-2-0.895-2-2v0zM17.6 14c-1.105 0-2 0.895-2 2s0.895 2 2 2v0c1.105 0 2-0.895 2-2s-0.895-2-2-2v0zM15.6 21.6c0-1.105 0.895-2 2-2s2 0.895 2 2v0c0 1.105-0.895 2-2 2s-2-0.895-2-2v0zM5.019 0c-2.772 0-5.019 2.247-5.019 5.019v0 17.962c0 2.772 2.247 5.019 5.019 5.019v0h13.962c2.772 0 5.019-2.247 5.019-5.019v0-17.962c0-2.772-2.247-5.019-5.019-5.019v0zM2.4 5.019c0-1.446 1.173-2.619 2.619-2.619h13.962c1.446 0 2.619 1.173 2.619 2.619v17.962c0 1.446-1.173 2.619-2.619 2.619h-13.962c-1.447 0-2.619-1.173-2.619-2.619v0zM4.48 29.579c0.741 1.447 2.221 2.421 3.93 2.421 0.002 0 0.003 0 0.005 0h11.187c4.64 0 8.4-3.76 8.4-8.4v-15.2c0-0 0-0 0-0.001 0-1.709-0.974-3.19-2.398-3.919l-0.025-0.012q0.024 0.272 0.022 0.55v18.581c0 3.314-2.686 6-6 6v0h-14.582q-0.272 0-0.539-0.021z"></path>
        </symbol>
        <symbol id="icon-location" viewBox="0 0 32 32">
            <path d="M16.004 18.892c-2.846 0-5.153-2.307-5.153-5.153s2.307-5.153 5.153-5.153v0c2.846 0 5.153 2.307 5.153 5.153s-2.307 5.153-5.153 5.153v0zM16.004 10.586c-0.001 0-0.001 0-0.002 0-1.746 0-3.162 1.416-3.162 3.162s1.415 3.161 3.16 3.162h0c0.001 0 0.001 0 0.002 0 1.746 0 3.162-1.416 3.162-3.162s-1.415-3.161-3.16-3.162h-0z"></path>
            <path d="M16.002 30.348c-2.14-0.004-4.081-0.852-5.508-2.228l0.002 0.002c-3.934-3.788-8.28-9.828-6.64-17.014 1.48-6.52 7.172-9.44 12.144-9.44h0.014c4.972 0 10.666 2.92 12.146 9.454 1.626 7.186-2.72 13.212-6.654 17-1.425 1.374-3.366 2.222-5.505 2.226h-0.001zM16 3.668c-3.88 0-8.866 2.066-10.186 7.88-1.44 6.28 2.506 11.694 6.080 15.12 1.062 1.033 2.513 1.67 4.113 1.67s3.052-0.637 4.114-1.671l-0.001 0.001c3.56-3.426 7.506-8.84 6.094-15.12-1.334-5.814-6.334-7.88-10.214-7.88z"></path>
        </symbol>
        <symbol id="icon-thumb-up" viewBox="0 0 32 32">
            <path d="M21.708 29.468h-5.066c-0.746 0-2.374-0.228-3.24-1.094l-4.040-3.12 1.226-1.586 4.134 3.2c0.334 0.32 1.174 0.586 1.92 0.586h5.066c1.2 0 2.494-0.96 2.76-2.040l3.228-9.8c0.212-0.586 0.172-1.12-0.108-1.506-0.292-0.414-0.826-0.654-1.48-0.654h-5.332c-0.694 0-1.334-0.294-1.774-0.8-0.358-0.414-0.577-0.958-0.577-1.553 0-0.134 0.011-0.266 0.033-0.395l-0.002 0.014 0.666-4.28c0.16-0.746-0.346-1.586-1.066-1.826-0.654-0.24-1.494 0.106-1.788 0.534l-5.466 8.132-1.654-1.106 5.468-8.134c0.84-1.252 2.68-1.852 4.12-1.306 1.666 0.546 2.732 2.386 2.36 4.094l-0.654 4.2c-0.014 0.092-0.014 0.226 0.080 0.332 0.066 0.068 0.16 0.108 0.266 0.108h5.334c1.306 0 2.44 0.546 3.106 1.492 0.654 0.92 0.788 2.134 0.36 3.308l-3.186 9.706c-0.494 1.934-2.546 3.494-4.694 3.494z"></path>
            <path d="M7.172 28h-1.334c-2.466 0-3.666-1.16-3.666-3.532v-13.068c0-2.372 1.2-3.532 3.666-3.532h1.334c2.466 0 3.666 1.16 3.666 3.532v13.068c0.002 2.372-1.198 3.532-3.666 3.532zM5.838 9.868c-1.452 0-1.666 0.346-1.666 1.532v13.068c0 1.186 0.214 1.532 1.666 1.532h1.334c1.454 0 1.666-0.346 1.666-1.532v-13.068c0-1.186-0.212-1.532-1.666-1.532z"></path>
        </symbol>
        <symbol id="icon-star" viewBox="0 0 32 32">
            <path d="M23.544 30.228c-0.706 0-1.614-0.226-2.746-0.894l-3.988-2.36c-0.412-0.24-1.212-0.24-1.612 0l-4 2.36c-2.36 1.4-3.748 0.84-4.374 0.388-0.614-0.454-1.574-1.614-0.946-4.28l0.946-4.094c0.106-0.426-0.106-1.16-0.426-1.48l-3.308-3.306c-1.65-1.654-1.52-3.066-1.29-3.762s0.946-1.92 3.24-2.306l4.252-0.708c0.4-0.066 0.974-0.492 1.148-0.852l2.36-4.708c1.064-2.144 2.464-2.464 3.198-2.464 0.732 0 2.132 0.32 3.2 2.466l2.346 4.694c0.186 0.36 0.76 0.786 1.16 0.854l4.254 0.706c2.306 0.386 3.026 1.614 3.24 2.306 0.212 0.694 0.346 2.108-1.294 3.76l-3.304 3.32c-0.32 0.32-0.52 1.040-0.428 1.48l0.948 4.094c0.612 2.666-0.334 3.826-0.948 4.28-0.332 0.24-0.866 0.506-1.626 0.506zM16 24.788c0.652 0 1.306 0.16 1.826 0.466l3.986 2.36c1.16 0.694 1.894 0.694 2.174 0.494s0.48-0.906 0.186-2.214l-0.946-4.092c-0.254-1.106 0.16-2.534 0.96-3.346l3.306-3.308c0.654-0.652 0.948-1.292 0.814-1.732-0.146-0.44-0.76-0.8-1.666-0.948l-4.254-0.706c-1.026-0.174-2.146-1-2.614-1.934l-2.348-4.692c-0.426-0.854-0.96-1.36-1.426-1.36-0.468 0-1 0.506-1.414 1.36l-2.36 4.692c-0.466 0.934-1.586 1.76-2.614 1.934l-4.24 0.706c-0.906 0.148-1.52 0.508-1.666 0.948s0.16 1.092 0.814 1.732l3.306 3.308c0.8 0.8 1.214 2.24 0.96 3.346l-0.946 4.094c-0.308 1.32-0.094 2.012 0.186 2.212s1 0.188 2.174-0.494l3.986-2.36c0.506-0.306 1.16-0.466 1.814-0.466z"></path>
        </symbol>
        <symbol id="icon-clock" viewBox="0 0 32 32">
            <path d="M15.998 30.334c-7.913-0.007-14.326-6.419-14.334-14.331v-0.001c0.007-7.914 6.42-14.327 14.333-14.334h0.001c7.913 0.008 14.325 6.421 14.332 14.333v0.001c-0.008 7.911-6.419 14.323-14.329 14.332h-0.001zM16 3.668c-6.809 0.008-12.326 5.525-12.334 12.333v0.001c0 6.8 5.534 12.332 12.334 12.332s12.332-5.532 12.332-12.332-5.532-12.334-12.332-12.334z"></path>
            <path d="M20.95 21.24c-0.003 0-0.007 0-0.011 0-0.184 0-0.355-0.055-0.498-0.15l0.003 0.002-4.134-2.466c-1.026-0.614-1.786-1.96-1.786-3.148v-5.466c0-0.546 0.452-1 1-1 0.546 0 1 0.454 1 1v5.466c0 0.48 0.4 1.188 0.812 1.428l4.134 2.466c0.295 0.178 0.489 0.496 0.489 0.859 0 0.19-0.053 0.368-0.145 0.519l0.003-0.004c-0.181 0.295-0.5 0.489-0.866 0.492h-0z"></path>
        </symbol>
    </defs>
</svg>
